<?xml version="1.0" encoding="UTF-8" standalone="no"?>
<!-- Created with Inkscape (http://www.inkscape.org/) -->

<svg
   xmlns:dc="http://purl.org/dc/elements/1.1/"
   xmlns:cc="http://creativecommons.org/ns#"
   xmlns:rdf="http://www.w3.org/1999/02/22-rdf-syntax-ns#"
   xmlns:svg="http://www.w3.org/2000/svg"
   xmlns="http://www.w3.org/2000/svg"
   xmlns:sodipodi="http://sodipodi.sourceforge.net/DTD/sodipodi-0.dtd"
   xmlns:inkscape="http://www.inkscape.org/namespaces/inkscape"
   width="9.2900124"
   height="8.6912498"
   id="svg2"
   version="1.1"
   inkscape:version="0.48.4 r9939"
   sodipodi:docname="puce-normal.svg">
  <defs
     id="defs4">
    <clipPath
       id="clipPath3163"
       clipPathUnits="userSpaceOnUse">
      <path
         id="path3165"
         d="m 0,0 623.622,0 0,510.236 L 0,510.236 0,0 z"
         inkscape:connector-curvature="0" />
    </clipPath>
    <clipPath
       id="clipPath3143"
       clipPathUnits="userSpaceOnUse">
      <path
         id="path3145"
         d="m 0,0 623.622,0 0,510.236 L 0,510.236 0,0 z"
         inkscape:connector-curvature="0" />
    </clipPath>
    <clipPath
       id="clipPath3039"
       clipPathUnits="userSpaceOnUse">
      <path
         id="path3041"
         d="m 22.677,22.677 266.457,0 0,288.283 -266.457,0 0,-288.283 z"
         inkscape:connector-curvature="0" />
    </clipPath>
    <clipPath
       id="clipPath3027"
       clipPathUnits="userSpaceOnUse">
      <path
         id="path3029"
         d="m 0,510.236 623.622,0 L 623.622,0 0,0 0,510.236 z"
         inkscape:connector-curvature="0" />
    </clipPath>
    <clipPath
       id="clipPath3005"
       clipPathUnits="userSpaceOnUse">
      <path
         id="path3007"
         d="m 0,510.236 623.622,0 L 623.622,0 0,0 0,510.236 z"
         inkscape:connector-curvature="0" />
    </clipPath>
    <clipPath
       id="clipPath3143-9"
       clipPathUnits="userSpaceOnUse">
      <path
         inkscape:connector-curvature="0"
         id="path3145-8"
         d="m 0,0 623.622,0 0,510.236 L 0,510.236 0,0 z" />
    </clipPath>
  </defs>
  <sodipodi:namedview
     id="base"
     pagecolor="#ffffff"
     bordercolor="#666666"
     borderopacity="1.0"
     inkscape:pageopacity="0.0"
     inkscape:pageshadow="2"
     inkscape:zoom="44.8"
     inkscape:cx="4.1308961"
     inkscape:cy="3.4265246"
     inkscape:document-units="px"
     inkscape:current-layer="g2993"
     showgrid="false"
     fit-margin-top="0"
     fit-margin-left="0"
     fit-margin-right="0"
     fit-margin-bottom="0"
     inkscape:window-width="1366"
     inkscape:window-height="692"
     inkscape:window-x="0"
     inkscape:window-y="24"
     inkscape:window-maximized="1" />
  <metadata
     id="metadata7">
    <rdf:RDF>
      <cc:Work
         rdf:about="">
        <dc:format>image/svg+xml</dc:format>
        <dc:type
           rdf:resource="http://purl.org/dc/dcmitype/StillImage" />
        <dc:title />
      </cc:Work>
    </rdf:RDF>
  </metadata>
  <g
     inkscape:label="Calque 1"
     inkscape:groupmode="layer"
     id="layer1"
     transform="translate(-452.49785,-556.58799)">
    <g
       transform="matrix(1.25,0,0,-1.25,-0.56773047,851.25968)"
       inkscape:label="GuidePMR_V4_2"
       id="g2993">
      <path
         sodipodi:type="arc"
         style="color:#000000;fill:#aa026d;fill-opacity:1;fill-rule:nonzero;stroke:none;stroke-width:1;marker:none;visibility:visible;display:inline;overflow:visible;enable-background:accumulate"
         id="path3003"
         sodipodi:cx="-20.3125"
         sodipodi:cy="21.235893"
         sodipodi:rx="4.5982141"
         sodipodi:ry="4.5982141"
         d="m -15.714286,21.235893 a 4.5982141,4.5982141 0 1 1 -9.196428,0 4.5982141,4.5982141 0 1 1 9.196428,0 z"
         transform="matrix(0.7223301,0,0,-0.7223301,380.84079,247.60017)" />
      <path
         sodipodi:type="arc"
         style="color:#000000;fill:#aa026d;fill-opacity:1;fill-rule:nonzero;stroke:none;stroke-width:1;marker:none;visibility:visible;display:inline;overflow:visible;enable-background:accumulate"
         id="path3003-7"
         sodipodi:cx="-20.3125"
         sodipodi:cy="21.235893"
         sodipodi:rx="4.5982141"
         sodipodi:ry="4.5982141"
         d="m -15.714286,21.235893 a 4.5982141,4.5982141 0 1 1 -9.196428,0 4.5982141,4.5982141 0 1 1 9.196428,0 z"
         transform="matrix(0.7223301,0,0,-0.7223301,380.84079,247.60017)" />
    </g>
  </g>
</svg>
