<?xml version="1.0" encoding="UTF-8" standalone="no"?>
<!-- Created with Inkscape (http://www.inkscape.org/) -->

<svg
   xmlns:dc="http://purl.org/dc/elements/1.1/"
   xmlns:cc="http://creativecommons.org/ns#"
   xmlns:rdf="http://www.w3.org/1999/02/22-rdf-syntax-ns#"
   xmlns:svg="http://www.w3.org/2000/svg"
   xmlns="http://www.w3.org/2000/svg"
   xmlns:xlink="http://www.w3.org/1999/xlink"
   xmlns:sodipodi="http://sodipodi.sourceforge.net/DTD/sodipodi-0.dtd"
   xmlns:inkscape="http://www.inkscape.org/namespaces/inkscape"
   width="210mm"
   height="297mm"
   id="svg2"
   version="1.1"
   inkscape:version="0.91 r13725"
   sodipodi:docname="fb-icon.svg">
  <defs
     id="defs4">
    <linearGradient
       inkscape:collect="always"
       id="linearGradient4224">
      <stop
         style="stop-color:#0088ce;stop-opacity:1;"
         offset="0"
         id="stop4226" />
      <stop
         style="stop-color:#000000;stop-opacity:1"
         offset="1"
         id="stop4228" />
    </linearGradient>
    <linearGradient
       inkscape:collect="always"
       xlink:href="#linearGradient4224"
       id="linearGradient4230"
       x1="284.92447"
       y1="71.095573"
       x2="282.33517"
       y2="43.506298"
       gradientUnits="userSpaceOnUse"
       gradientTransform="matrix(1.6692379,0,0,1.7042355,-180.78131,-62.098149)" />
    <filter
       inkscape:collect="always"
       style="color-interpolation-filters:sRGB"
       id="filter4262"
       x="-0.032565892"
       width="1.0651318"
       y="-0.040243746"
       height="1.0804875">
      <feGaussianBlur
         inkscape:collect="always"
         stdDeviation="0.31061062"
         id="feGaussianBlur4264" />
    </filter>
    <filter
       inkscape:collect="always"
       style="color-interpolation-filters:sRGB"
       id="filter4262-2"
       x="-0.032565892"
       width="1.0651318"
       y="-0.040243745"
       height="1.0804875">
      <feGaussianBlur
         inkscape:collect="always"
         stdDeviation="0.31061062"
         id="feGaussianBlur4264-3" />
    </filter>
  </defs>
  <sodipodi:namedview
     id="base"
     pagecolor="#ffffff"
     bordercolor="#666666"
     borderopacity="1.0"
     inkscape:pageopacity="0.0"
     inkscape:pageshadow="2"
     inkscape:zoom="5.6"
     inkscape:cx="305.28852"
     inkscape:cy="990.93159"
     inkscape:document-units="px"
     inkscape:current-layer="layer1"
     showgrid="false"
     inkscape:window-width="1426"
     inkscape:window-height="767"
     inkscape:window-x="248"
     inkscape:window-y="83"
     inkscape:window-maximized="0" />
  <metadata
     id="metadata7">
    <rdf:RDF>
      <cc:Work
         rdf:about="">
        <dc:format>image/svg+xml</dc:format>
        <dc:type
           rdf:resource="http://purl.org/dc/dcmitype/StillImage" />
        <dc:title />
      </cc:Work>
    </rdf:RDF>
  </metadata>
  <g
     inkscape:label="Calque 1"
     inkscape:groupmode="layer"
     id="layer1">
    <rect
       ry="1.4428474"
       y="49.847286"
       x="277.03314"
       height="19.65365"
       width="48.204456"
       id="rect4208"
       style="opacity:1;fill:none;fill-opacity:1;stroke:#0088ce;stroke-width:1.79554319;stroke-miterlimit:4;stroke-dasharray:none;stroke-opacity:1"
       inkscape:export-xdpi="90"
       inkscape:export-ydpi="90"
       inkscape:export-filename="/home/ubuntu/Documents/0-clients/SNCF-DAVH/2015-rapport-accessibilite/reader/css/img/onoff.png" />
    <path
       style="opacity:1;fill:#000000;fill-opacity:1;stroke:#b3b3b3;stroke-width:0.2862412;stroke-miterlimit:4;stroke-dasharray:none;stroke-opacity:1;filter:url(#filter4262-2)"
       d="m 273.64378,46.493187 21.51855,0 c 0.76029,0 1.37245,0.606516 1.37245,1.3599 l 0,15.80396 c 0,0.753384 -0.61215,1.3599 -1.37245,1.3599 l -21.51855,0 z"
       id="path4266"
       inkscape:connector-curvature="0"
       sodipodi:nodetypes="csssscc"
       inkscape:export-xdpi="90"
       inkscape:export-ydpi="90"
       inkscape:export-filename="/home/ubuntu/Documents/0-clients/SNCF-DAVH/2015-rapport-accessibilite/reader/css/img/onoff.png"
       transform="matrix(-1,0,0,1,574.13417,3.9190444)" />
    <rect
       style="opacity:1;fill:none;fill-opacity:1;stroke:#b3b3b3;stroke-width:1.79554319;stroke-miterlimit:4;stroke-dasharray:none;stroke-opacity:1"
       id="rect3377"
       width="48.204456"
       height="19.65365"
       x="277.03314"
       y="73.100983"
       ry="1.4428474"
       inkscape:export-xdpi="90"
       inkscape:export-ydpi="90"
       inkscape:export-filename="/home/ubuntu/Documents/0-clients/SNCF-DAVH/2015-rapport-accessibilite/reader/css/img/onoff.png" />
    <path
       inkscape:export-filename="/home/ubuntu/Documents/0-clients/SNCF-DAVH/2015-rapport-accessibilite/reader/css/img/onoff.png"
       inkscape:export-ydpi="90"
       inkscape:export-xdpi="90"
       sodipodi:nodetypes="csssscc"
       inkscape:connector-curvature="0"
       id="path4248"
       d="m 302.08771,73.665928 21.51855,0 c 0.76029,0 1.37245,0.606516 1.37245,1.3599 l 0,15.80396 c 0,0.753384 -0.61215,1.3599 -1.37245,1.3599 l -21.51855,0 z"
       style="opacity:1;fill:#000000;fill-opacity:1;stroke:#b3b3b3;stroke-width:0.2862412;stroke-miterlimit:4;stroke-dasharray:none;stroke-opacity:1;filter:url(#filter4262)" />
    <path
       style="opacity:1;fill:#f2f2f2;fill-opacity:1;stroke:#b3b3b3;stroke-width:0.181;stroke-miterlimit:4;stroke-dasharray:none;stroke-opacity:1"
       d="m 302.32914,73.797331 21.06464,0 c 0.74425,0 1.3435,0.597911 1.3435,1.340606 l 0,15.579742 c 0,0.742695 -0.59925,1.340606 -1.3435,1.340606 l -21.06464,0 z"
       id="rect4179"
       inkscape:connector-curvature="0"
       sodipodi:nodetypes="csssscc"
       inkscape:export-xdpi="90"
       inkscape:export-ydpi="90"
       inkscape:export-filename="/home/ubuntu/Documents/0-clients/SNCF-DAVH/2015-rapport-accessibilite/reader/css/img/onoff.png" />
    <g
       id="g2987"
       transform="matrix(0.01236979,0,0,-0.01236979,133.37805,138.38666)"
       style="fill:#0088ce;fill-opacity:1;stroke:none"
       inkscape:export-filename="/home/audrey/Documents/access42/0-clients/SNCF-DAVH/2015-guide-mobilite/reader/img/help-info.png"
       inkscape:export-xdpi="90"
       inkscape:export-ydpi="90">
      <path
         id="path2989"
         d="m 896,160 v 192 q 0,14 -9,23 -9,9 -23,9 H 672 q -14,0 -23,-9 -9,-9 -9,-23 V 160 q 0,-14 9,-23 9,-9 23,-9 h 192 q 14,0 23,9 9,9 9,23 z m 256,672 q 0,88 -55.5,163 -55.5,75 -138.5,116 -83,41 -170,41 -243,0 -371,-213 -15,-24 8,-42 L 557,797 q 7,-6 19,-6 16,0 25,12 53,68 86,92 34,24 86,24 48,0 85.5,-26 Q 896,867 896,834 896,796 876,773 856,750 808,728 745,700 692.5,641.5 640,583 640,516 v -36 q 0,-14 9,-23 9,-9 23,-9 h 192 q 14,0 23,9 9,9 9,23 0,19 21.5,49.5 21.5,30.5 54.5,49.5 32,18 49,28.5 17,10.5 46,35 29,24.5 44.5,48 15.5,23.5 28,60.5 12.5,37 12.5,81 z M 1536,640 Q 1536,431 1433,254.5 1330,78 1153.5,-25 977,-128 768,-128 559,-128 382.5,-25 206,78 103,254.5 0,431 0,640 0,849 103,1025.5 206,1202 382.5,1305 559,1408 768,1408 977,1408 1153.5,1305 1330,1202 1433,1025.5 1536,849 1536,640 z"
         inkscape:connector-curvature="0"
         style="fill:#0088ce;fill-opacity:1;stroke:none" />
    </g>
    <g
       id="g3022"
       transform="matrix(0.01236979,0,0,-0.01236979,170.30207,140.03496)"
       style="stroke:none;stroke-opacity:1;fill:#0088ce;fill-opacity:1"
       inkscape:export-filename="/home/audrey/Documents/access42/0-clients/SNCF-DAVH/2015-guide-mobilite/reader/img/owner-info.png"
       inkscape:export-xdpi="90"
       inkscape:export-ydpi="90">
      <path
         id="path3024"
         d="m 1024,160 v 160 q 0,14 -9,23 -9,9 -23,9 h -96 v 512 q 0,14 -9,23 -9,9 -23,9 H 544 q -14,0 -23,-9 -9,-9 -9,-23 V 704 q 0,-14 9,-23 9,-9 23,-9 h 96 V 352 h -96 q -14,0 -23,-9 -9,-9 -9,-23 V 160 q 0,-14 9,-23 9,-9 23,-9 h 448 q 14,0 23,9 9,9 9,23 z m -128,896 v 160 q 0,14 -9,23 -9,9 -23,9 H 672 q -14,0 -23,-9 -9,-9 -9,-23 v -160 q 0,-14 9,-23 9,-9 23,-9 h 192 q 14,0 23,9 9,9 9,23 z M 1536,640 Q 1536,431 1433,254.5 1330,78 1153.5,-25 977,-128 768,-128 559,-128 382.5,-25 206,78 103,254.5 0,431 0,640 0,849 103,1025.5 206,1202 382.5,1305 559,1408 768,1408 977,1408 1153.5,1305 1330,1202 1433,1025.5 1536,849 1536,640 z"
         inkscape:connector-curvature="0"
         style="fill:#0088ce;stroke:none;stroke-opacity:1;fill-opacity:1" />
    </g>
    <g
       id="g3057"
       transform="matrix(0.01236979,0,0,-0.01236979,197.07111,140.42091)"
       style="stroke:none;stroke-opacity:1;fill:#0088ce;fill-opacity:1"
       inkscape:export-filename="/home/audrey/Documents/access42/0-clients/SNCF-DAVH/2015-guide-mobilite/reader/img/pdf-download.png"
       inkscape:export-xdpi="90"
       inkscape:export-ydpi="90">
      <path
         id="path3059"
         d="m 1280,192 q 0,26 -19,45 -19,19 -45,19 -26,0 -45,-19 -19,-19 -19,-45 0,-26 19,-45 19,-19 45,-19 26,0 45,19 19,19 19,45 z m 256,0 q 0,26 -19,45 -19,19 -45,19 -26,0 -45,-19 -19,-19 -19,-45 0,-26 19,-45 19,-19 45,-19 26,0 45,19 19,19 19,45 z m 128,224 V 96 Q 1664,56 1636,28 1608,0 1568,0 H 96 Q 56,0 28,28 0,56 0,96 v 320 q 0,40 28,68 28,28 68,28 H 561 L 696,376 q 58,-56 136,-56 78,0 136,56 l 136,136 h 464 q 40,0 68,-28 28,-28 28,-68 z m -325,569 q 17,-41 -14,-70 L 877,467 q -18,-19 -45,-19 -27,0 -45,19 L 339,915 q -31,29 -14,70 17,39 59,39 h 256 v 448 q 0,26 19,45 19,19 45,19 h 256 q 26,0 45,-19 19,-19 19,-45 v -448 h 256 q 42,0 59,-39 z"
         inkscape:connector-curvature="0"
         style="fill:#0088ce;stroke:none;stroke-opacity:1;fill-opacity:1" />
    </g>
    <g
       id="g3092"
       transform="matrix(0.01236979,0,0,-0.01236979,220.8097,139.52988)"
       style="stroke:none;stroke-opacity:1;fill:#0088ce;fill-opacity:1"
       inkscape:export-filename="/home/audrey/Documents/access42/0-clients/SNCF-DAVH/2015-guide-mobilite/reader/img/fullscreen.png"
       inkscape:export-xdpi="90"
       inkscape:export-ydpi="90">
      <path
         id="path3094"
         d="m 755,480 q 0,-13 -10,-23 L 413,125 557,-19 q 19,-19 19,-45 0,-26 -19,-45 -19,-19 -45,-19 H 64 q -26,0 -45,19 -19,19 -19,45 v 448 q 0,26 19,45 19,19 45,19 26,0 45,-19 L 253,285 585,617 q 10,10 23,10 13,0 23,-10 L 745,503 q 10,-10 10,-23 z m 781,864 V 896 q 0,-26 -19,-45 -19,-19 -45,-19 -26,0 -45,19 L 1283,995 951,663 q -10,-10 -23,-10 -13,0 -23,10 L 791,777 q -10,10 -10,23 0,13 10,23 l 332,332 -144,144 q -19,19 -19,45 0,26 19,45 19,19 45,19 h 448 q 26,0 45,-19 19,-19 19,-45 z"
         inkscape:connector-curvature="0"
         style="fill:#0088ce;stroke:none;stroke-opacity:1;fill-opacity:1" />
    </g>
    <g
       id="g3127"
       transform="matrix(0.011875,0,0,-0.011875,247.07367,136.60861)"
       style="stroke:none;stroke-opacity:1;fill:#0088ce;fill-opacity:1"
       inkscape:export-filename="/home/audrey/Documents/access42/0-clients/SNCF-DAVH/2015-guide-mobilite/reader/img/goto.png"
       inkscape:export-xdpi="90"
       inkscape:export-ydpi="90">
      <path
         id="path3129"
         d="m 1792,896 q 0,-26 -19,-45 L 1261,339 q -19,-19 -45,-19 -26,0 -45,19 -19,19 -19,45 V 640 H 928 Q 830,640 752.5,634 675,628 598.5,612.5 522,597 465.5,570 409,543 360,500.5 311,458 280,399.5 249,341 231.5,261 214,181 214,80 q 0,-55 5,-123 0,-6 2.5,-23.5 2.5,-17.5 2.5,-26.5 0,-15 -8.5,-25 -8.5,-10 -23.5,-10 -16,0 -28,17 -7,9 -13,22 -6,13 -13.5,30 Q 130,-42 127,-35 0,250 0,416 q 0,199 53,333 162,403 875,403 h 224 v 256 q 0,26 19,45 19,19 45,19 26,0 45,-19 l 512,-512 q 19,-19 19,-45 z"
         inkscape:connector-curvature="0"
         style="fill:#0088ce;stroke:none;stroke-opacity:1;fill-opacity:1" />
    </g>
    <g
       id="g3162"
       transform="matrix(0.01078932,0,0,-0.01078932,277.03065,137.49775)"
       style="stroke:none;stroke-opacity:1;fill:#0088ce;fill-opacity:1"
       inkscape:export-filename="/home/audrey/Documents/access42/0-clients/SNCF-DAVH/2015-guide-mobilite/reader/img/settings.png"
       inkscape:export-xdpi="90"
       inkscape:export-ydpi="90">
      <path
         id="path3164"
         d="m 896,640 q 0,106 -75,181 -75,75 -181,75 -106,0 -181,-75 -75,-75 -75,-181 0,-106 75,-181 75,-75 181,-75 106,0 181,75 75,75 75,181 z m 768,-512 q 0,52 -38,90 -38,38 -90,38 -52,0 -90,-38 -38,-38 -38,-90 0,-53 37.5,-90.5 Q 1483,0 1536,0 1589,0 1626.5,37.5 1664,75 1664,128 z m 0,1024 q 0,52 -38,90 -38,38 -90,38 -52,0 -90,-38 -38,-38 -38,-90 0,-53 37.5,-90.5 37.5,-37.5 90.5,-37.5 53,0 90.5,37.5 37.5,37.5 37.5,90.5 z M 1280,731 V 546 q 0,-10 -7,-19.5 -7,-9.5 -16,-10.5 l -155,-24 q -11,-35 -32,-76 34,-48 90,-115 7,-10 7,-20 0,-12 -7,-19 -23,-30 -82.5,-89.5 Q 1018,113 999,113 q -11,0 -21,7 L 863,210 Q 826,191 786,179 775,71 763,24 756,0 733,0 H 547 Q 536,0 527,7.5 518,15 517,25 l -23,153 q -34,10 -75,31 L 301,120 q -7,-7 -20,-7 -11,0 -21,8 -144,133 -144,160 0,9 7,19 10,14 41,53 31,39 47,61 -23,44 -35,82 L 24,520 Q 14,521 7,529.5 0,538 0,549 v 185 q 0,10 7,19.5 7,9.5 16,10.5 l 155,24 q 11,35 32,76 -34,48 -90,115 -7,11 -7,20 0,12 7,20 22,30 82,89 60,59 79,59 11,0 21,-7 l 115,-90 q 34,18 77,32 11,108 23,154 7,24 30,24 h 186 q 11,0 20,-7.5 9,-7.5 10,-17.5 l 23,-153 q 34,-10 75,-31 l 118,89 q 8,7 20,7 11,0 21,-8 144,-133 144,-160 0,-9 -7,-19 -12,-16 -42,-54 -30,-38 -45,-60 23,-48 34,-82 l 152,-23 q 10,-2 17,-10.5 7,-8.5 7,-19.5 z M 1920,198 V 58 q 0,-16 -149,-31 -12,-27 -30,-52 51,-113 51,-138 0,-4 -4,-7 -122,-71 -124,-71 -8,0 -46,47 -38,47 -52,68 -20,-2 -30,-2 -10,0 -30,2 -14,-21 -52,-68 -38,-47 -46,-47 -2,0 -124,71 -4,3 -4,7 0,25 51,138 -18,25 -30,52 -149,15 -149,31 v 140 q 0,16 149,31 13,29 30,52 -51,113 -51,138 0,4 4,7 4,2 35,20 31,18 59,34 28,16 30,16 8,0 46,-46.5 38,-46.5 52,-67.5 20,2 30,2 10,0 30,-2 51,71 92,112 l 6,2 q 4,0 124,-70 4,-3 4,-7 0,-25 -51,-138 17,-23 30,-52 149,-15 149,-31 z m 0,1024 v -140 q 0,-16 -149,-31 -12,-27 -30,-52 51,-113 51,-138 0,-4 -4,-7 -122,-71 -124,-71 -8,0 -46,47 -38,47 -52,68 -20,-2 -30,-2 -10,0 -30,2 -14,-21 -52,-68 -38,-47 -46,-47 -2,0 -124,71 -4,3 -4,7 0,25 51,138 -18,25 -30,52 -149,15 -149,31 v 140 q 0,16 149,31 13,29 30,52 -51,113 -51,138 0,4 4,7 4,2 35,20 31,18 59,34 28,16 30,16 8,0 46,-46.5 38,-46.5 52,-67.5 20,2 30,2 10,0 30,-2 51,71 92,112 l 6,2 q 4,0 124,-70 4,-3 4,-7 0,-25 -51,-138 17,-23 30,-52 149,-15 149,-31 z"
         inkscape:connector-curvature="0"
         style="fill:#0088ce;stroke:none;stroke-opacity:1;fill-opacity:1" />
    </g>
    <g
       id="g3197"
       transform="matrix(0.01236979,0,0,-0.01236979,318.00791,145.08064)"
       style="stroke:none;stroke-opacity:1;fill:#0088ce;fill-opacity:1"
       inkscape:export-filename="/home/audrey/Documents/access42/0-clients/SNCF-DAVH/2015-guide-mobilite/reader/img/print.png"
       inkscape:export-xdpi="90"
       inkscape:export-ydpi="90">
      <path
         id="path3199"
         d="m 384,0 h 896 V 256 H 384 V 0 z m 0,640 h 896 v 384 h -160 q -40,0 -68,28 -28,28 -28,68 v 160 H 384 V 640 z m 1152,-64 q 0,26 -19,45 -19,19 -45,19 -26,0 -45,-19 -19,-19 -19,-45 0,-26 19,-45 19,-19 45,-19 26,0 45,19 19,19 19,45 z m 128,0 V 160 q 0,-13 -9.5,-22.5 Q 1645,128 1632,128 H 1408 V -32 q 0,-40 -28,-68 -28,-28 -68,-28 H 352 q -40,0 -68,28 -28,28 -28,68 V 128 H 32 Q 19,128 9.5,137.5 0,147 0,160 V 576 Q 0,655 56.5,711.5 113,768 192,768 h 64 v 544 q 0,40 28,68 28,28 68,28 h 672 q 40,0 88,-20 48,-20 76,-48 l 152,-152 q 28,-28 48,-76 20,-48 20,-88 V 768 h 64 q 79,0 135.5,-56.5 Q 1664,655 1664,576 z"
         inkscape:connector-curvature="0"
         style="fill:#0088ce;stroke:none;stroke-opacity:1;fill-opacity:1" />
    </g>
    <g
       id="g3232"
       transform="matrix(0.01349432,0,0,-0.01349432,353.07923,144.13859)"
       style="stroke:none;stroke-opacity:1;fill:#0088ce;fill-opacity:1"
       inkscape:export-filename="/home/audrey/Documents/access42/0-clients/SNCF-DAVH/2015-guide-mobilite/reader/img/summary.png"
       inkscape:export-xdpi="90"
       inkscape:export-ydpi="90">
      <path
         id="path3234"
         d="M 256,224 V 32 Q 256,19 246.5,9.5 237,0 224,0 H 32 Q 19,0 9.5,9.5 0,19 0,32 V 224 Q 0,237 9.5,246.5 19,256 32,256 h 192 q 13,0 22.5,-9.5 Q 256,237 256,224 z m 0,384 V 416 q 0,-13 -9.5,-22.5 Q 237,384 224,384 H 32 Q 19,384 9.5,393.5 0,403 0,416 V 608 Q 0,621 9.5,630.5 19,640 32,640 h 192 q 13,0 22.5,-9.5 Q 256,621 256,608 z m 0,384 V 800 q 0,-13 -9.5,-22.5 Q 237,768 224,768 H 32 Q 19,768 9.5,777.5 0,787 0,800 v 192 q 0,13 9.5,22.5 9.5,9.5 22.5,9.5 h 192 q 13,0 22.5,-9.5 Q 256,1005 256,992 z M 1792,224 V 32 Q 1792,19 1782.5,9.5 1773,0 1760,0 H 416 Q 403,0 393.5,9.5 384,19 384,32 v 192 q 0,13 9.5,22.5 9.5,9.5 22.5,9.5 h 1344 q 13,0 22.5,-9.5 9.5,-9.5 9.5,-22.5 z M 256,1376 v -192 q 0,-13 -9.5,-22.5 Q 237,1152 224,1152 H 32 q -13,0 -22.5,9.5 Q 0,1171 0,1184 v 192 q 0,13 9.5,22.5 9.5,9.5 22.5,9.5 h 192 q 13,0 22.5,-9.5 9.5,-9.5 9.5,-22.5 z M 1792,608 V 416 q 0,-13 -9.5,-22.5 Q 1773,384 1760,384 H 416 q -13,0 -22.5,9.5 Q 384,403 384,416 v 192 q 0,13 9.5,22.5 9.5,9.5 22.5,9.5 h 1344 q 13,0 22.5,-9.5 9.5,-9.5 9.5,-22.5 z m 0,384 V 800 q 0,-13 -9.5,-22.5 Q 1773,768 1760,768 H 416 q -13,0 -22.5,9.5 Q 384,787 384,800 v 192 q 0,13 9.5,22.5 9.5,9.5 22.5,9.5 h 1344 q 13,0 22.5,-9.5 9.5,-9.5 9.5,-22.5 z m 0,384 v -192 q 0,-13 -9.5,-22.5 -9.5,-9.5 -22.5,-9.5 H 416 q -13,0 -22.5,9.5 -9.5,9.5 -9.5,22.5 v 192 q 0,13 9.5,22.5 9.5,9.5 22.5,9.5 h 1344 q 13,0 22.5,-9.5 9.5,-9.5 9.5,-22.5 z"
         inkscape:connector-curvature="0"
         style="fill:#0088ce;stroke:none;stroke-opacity:1;fill-opacity:1" />
    </g>
    <g
       id="g4054"
       transform="matrix(0.01201923,0,0,-0.01201923,81.89731,131.16847)"
       style="fill:#0088ce;fill-opacity:1"
       inkscape:export-filename="/home/audrey/Documents/access42/0-clients/SNCF-DAVH/2015-guide-mobilite/reader/img/sound.png"
       inkscape:export-xdpi="90"
       inkscape:export-ydpi="90">
      <path
         id="path4056"
         d="M 768,1184 V 96 Q 768,70 749,51 730,32 704,32 678,32 659,51 L 326,384 H 64 Q 38,384 19,403 0,422 0,448 v 384 q 0,26 19,45 19,19 45,19 h 262 l 333,333 q 19,19 45,19 26,0 45,-19 19,-19 19,-45 z m 384,-544 q 0,-76 -42.5,-141.5 Q 1067,433 997,405 q -10,-5 -25,-5 -26,0 -45,18.5 -19,18.5 -19,45.5 0,21 12,35.5 12,14.5 29,25 17,10.5 34,23 17,12.5 29,35.5 12,23 12,57 0,34 -12,57 -12,23 -29,35.5 -17,12.5 -34,23 -17,10.5 -29,25 -12,14.5 -12,35.5 0,27 19,45.5 19,18.5 45,18.5 15,0 25,-5 70,-27 112.5,-93 42.5,-66 42.5,-142 z m 256,0 Q 1408,487 1323,357.5 1238,228 1098,169 q -13,-5 -25,-5 -27,0 -46,19 -19,19 -19,45 0,39 39,59 56,29 76,44 74,54 115.5,135.5 41.5,81.5 41.5,173.5 0,92 -41.5,173.5 Q 1197,895 1123,949 q -20,15 -76,44 -39,20 -39,59 0,26 19,45 19,19 45,19 13,0 26,-5 140,-59 225,-188.5 85,-129.5 85,-282.5 z m 256,0 Q 1664,410 1537,217.5 1410,25 1199,-66 q -13,-5 -26,-5 -26,0 -45,19 -19,19 -19,45 0,36 39,59 7,4 22.5,10.5 15.5,6.5 22.5,10.5 46,25 82,51 123,91 192,227 69,136 69,289 0,153 -69,289 -69,136 -192,227 -36,26 -82,51 -7,4 -22.5,10.5 -15.5,6.5 -22.5,10.5 -39,23 -39,59 0,26 19,45 19,19 45,19 13,0 26,-5 211,-91 338,-283.5 Q 1664,870 1664,640 z"
         inkscape:connector-curvature="0"
         style="fill:#0088ce;fill-opacity:1" />
    </g>
    <g
       id="g4089"
       transform="matrix(0.01349432,0,0,-0.01349432,161.72086,212.82897)"
       style="fill:#b3b3b3"
       inkscape:export-filename="/home/audrey/Documents/access42/0-clients/SNCF-DAVH/2015-guide-mobilite/reader/img/plus.png"
       inkscape:export-xdpi="90"
       inkscape:export-ydpi="90">
      <path
         id="path4091"
         d="M 1408,800 V 608 q 0,-40 -28,-68 -28,-28 -68,-28 H 896 V 96 Q 896,56 868,28 840,0 800,0 H 608 Q 568,0 540,28 512,56 512,96 V 512 H 96 Q 56,512 28,540 0,568 0,608 v 192 q 0,40 28,68 28,28 68,28 h 416 v 416 q 0,40 28,68 28,28 68,28 h 192 q 40,0 68,-28 28,-28 28,-68 V 896 h 416 q 40,0 68,-28 28,-28 28,-68 z"
         inkscape:connector-curvature="0"
         style="fill:#b3b3b3" />
    </g>
    <g
       id="g4124"
       transform="matrix(0.01141827,0,0,-0.01141827,33.1449,128.02983)"
       style="fill:#0088ce;fill-opacity:1"
       inkscape:export-filename="/home/audrey/Documents/access42/0-clients/SNCF-DAVH/2015-guide-mobilite/reader/img/dyslexia.png"
       inkscape:export-xdpi="90"
       inkscape:export-ydpi="90">
      <path
         id="path4126"
         d="M 725,977 555,527 q 33,0 136.5,-2 103.5,-2 160.5,-2 19,0 57,2 -87,253 -184,452 z M 0,-128 2,-49 q 23,7 56,12.5 33,5.5 57,10.5 24,5 49.5,14.5 Q 190,-2 209,17.5 228,37 240,68 l 237,616 280,724 h 75 53 q 8,-14 11,-21 l 205,-480 q 33,-78 106,-257.5 73,-179.5 114,-274.5 15,-34 58,-144.5 43,-110.5 72,-168.5 20,-45 35,-57 19,-15 88,-29.5 69,-14.5 84,-20.5 6,-38 6,-57 0,-4 -0.5,-13 -0.5,-9 -0.5,-13 -63,0 -190,8 -127,8 -191,8 -76,0 -215,-7 -139,-7 -178,-8 0,43 4,78 l 131,28 q 1,0 12.5,2.5 11.5,2.5 15.5,3.5 4,1 14.5,4.5 10.5,3.5 15,6.5 4.5,3 11,8 6.5,5 9,11 2.5,6 2.5,14 0,16 -31,96.5 -31,80.5 -72,177.5 -41,97 -42,100 l -450,2 Q 483,347 432.5,209.5 382,72 382,47 382,25 396,9.5 410,-6 439.5,-15 469,-24 488,-28.5 q 19,-4.5 57,-8.5 38,-4 41,-4 1,-19 1,-58 0,-9 -2,-27 -58,0 -174.5,10 -116.5,10 -174.5,10 -8,0 -26.5,-4 -18.5,-4 -21.5,-4 -80,-14 -188,-14 z"
         inkscape:connector-curvature="0"
         style="fill:#0088ce;fill-opacity:1" />
    </g>
    <g
       id="g4159"
       transform="matrix(0.01060268,0,0,-0.01060268,42.869851,213.14513)"
       style="fill:#0088ce;fill-opacity:1"
       inkscape:export-filename="/home/audrey/Documents/access42/0-clients/SNCF-DAVH/2015-guide-mobilite/reader/img/clic.png"
       inkscape:export-xdpi="90"
       inkscape:export-ydpi="90">
      <path
         id="path4161"
         d="m 1280,-64 q 0,26 -19,45 -19,19 -45,19 -26,0 -45,-19 -19,-19 -19,-45 0,-26 19,-45 19,-19 45,-19 26,0 45,19 19,19 19,45 z m 128,764 q 0,189 -167,189 -26,0 -56,-5 -16,30 -52.5,47.5 -36.5,17.5 -73.5,17.5 -37,0 -69,-18 -50,53 -119,53 -25,0 -55.5,-10 Q 785,964 768,949 v 331 q 0,52 -38,90 -38,38 -90,38 -51,0 -89.5,-39 Q 512,1330 512,1280 V 704 q -20,0 -48.5,15 -28.5,15 -55,33 -26.5,18 -68,33 Q 299,800 256,800 189,800 158.5,755.5 128,711 128,640 q 0,-24 139,-90 44,-24 65,-37 64,-40 145,-112 81,-71 106,-101 57,-69 57,-140 v -32 h 640 v 32 q 0,72 32,167 32,95 64,193.5 32,98.5 32,179.5 z m 128,5 q 0,-133 -69,-322 -59,-164 -59,-223 v -288 q 0,-53 -37.5,-90.5 Q 1333,-256 1280,-256 H 640 q -53,0 -90.5,37.5 Q 512,-181 512,-128 v 288 q 0,10 -4.5,21.5 -4.5,11.5 -14,23.5 -9.5,12 -18,22.5 -8.5,10.5 -22.5,24 -14,13.5 -21.5,20.5 -7.5,7 -21.5,19 -14,12 -17,14 -74,65 -129,100 -21,13 -62,33 -41,20 -72,37 Q 99,492 67,515.5 35,539 17.5,570.5 0,602 0,640 0,765 67,846.5 134,928 256,928 q 68,0 128,-22 v 374 q 0,104 76,180 76,76 179,76 105,0 181,-75.5 76,-75.5 76,-180.5 v -169 q 62,-4 119,-37 21,3 43,3 101,0 178,-60 139,1 219.5,-85 80.5,-86 80.5,-227 z"
         inkscape:connector-curvature="0"
         style="fill:#0088ce;fill-opacity:1" />
    </g>
    <g
       id="g4194"
       transform="matrix(0.01207386,0,0,-0.01207386,55.084231,129.99646)"
       style="fill:#0088ce;fill-opacity:1"
       inkscape:export-filename="/home/audrey/Documents/access42/0-clients/SNCF-DAVH/2015-guide-mobilite/reader/img/interligne.png"
       inkscape:export-xdpi="90"
       inkscape:export-ydpi="90">
      <path
         id="path4196"
         d="M 1792,192 V 64 Q 1792,38 1773,19 1754,0 1728,0 H 64 Q 38,0 19,19 0,38 0,64 v 128 q 0,26 19,45 19,19 45,19 h 1664 q 26,0 45,-19 19,-19 19,-45 z m 0,384 V 448 q 0,-26 -19,-45 -19,-19 -45,-19 H 64 Q 38,384 19,403 0,422 0,448 v 128 q 0,26 19,45 19,19 45,19 h 1664 q 26,0 45,-19 19,-19 19,-45 z m 0,384 V 832 q 0,-26 -19,-45 -19,-19 -45,-19 H 64 Q 38,768 19,787 0,806 0,832 v 128 q 0,26 19,45 19,19 45,19 h 1664 q 26,0 45,-19 19,-19 19,-45 z m 0,384 v -128 q 0,-26 -19,-45 -19,-19 -45,-19 H 64 q -26,0 -45,19 -19,19 -19,45 v 128 q 0,26 19,45 19,19 45,19 h 1664 q 26,0 45,-19 19,-19 19,-45 z"
         inkscape:connector-curvature="0"
         style="fill:#0088ce;fill-opacity:1" />
    </g>
    <g
       id="g4229"
       transform="matrix(0.02020202,0,0,-0.02020202,312.03167,200.84857)"
       style="fill:#0088ce;fill-opacity:1"
       inkscape:export-xdpi="90"
       inkscape:export-ydpi="90"
       inkscape:export-filename="/home/audrey/Documents/access42/0-clients/SNCF-DAVH/2015-guide-mobilite/reader/img/close.png">
      <path
         id="path4231"
         d="m 1298,214 q 0,-40 -28,-68 L 1134,10 q -28,-28 -68,-28 -40,0 -68,28 L 704,304 410,10 q -28,-28 -68,-28 -40,0 -68,28 L 138,146 q -28,28 -28,68 0,40 28,68 L 432,576 138,870 q -28,28 -28,68 0,40 28,68 l 136,136 q 28,28 68,28 40,0 68,-28 l 294,-294 294,294 q 28,28 68,28 40,0 68,-28 l 136,-136 q 28,-28 28,-68 0,-40 -28,-68 L 976,576 1270,282 q 28,-28 28,-68 z"
         inkscape:connector-curvature="0"
         style="fill:#0088ce;fill-opacity:1" />
    </g>
    <g
       inkscape:export-ydpi="90"
       inkscape:export-xdpi="90"
       inkscape:export-filename="/home/audrey/Documents/access42/0-clients/SNCF-DAVH/2015-guide-mobilite/reader/img/summary-sm.png"
       style="fill:#cccccc;fill-opacity:1;stroke:none"
       transform="matrix(0.01349432,0,0,-0.01349432,353.07923,111.30863)"
       id="g4262">
      <path
         style="fill:#cccccc;fill-opacity:1;stroke:none"
         inkscape:connector-curvature="0"
         d="M 256,224 V 32 Q 256,19 246.5,9.5 237,0 224,0 H 32 Q 19,0 9.5,9.5 0,19 0,32 V 224 Q 0,237 9.5,246.5 19,256 32,256 h 192 q 13,0 22.5,-9.5 Q 256,237 256,224 z m 0,384 V 416 q 0,-13 -9.5,-22.5 Q 237,384 224,384 H 32 Q 19,384 9.5,393.5 0,403 0,416 V 608 Q 0,621 9.5,630.5 19,640 32,640 h 192 q 13,0 22.5,-9.5 Q 256,621 256,608 z m 0,384 V 800 q 0,-13 -9.5,-22.5 Q 237,768 224,768 H 32 Q 19,768 9.5,777.5 0,787 0,800 v 192 q 0,13 9.5,22.5 9.5,9.5 22.5,9.5 h 192 q 13,0 22.5,-9.5 Q 256,1005 256,992 z M 1792,224 V 32 Q 1792,19 1782.5,9.5 1773,0 1760,0 H 416 Q 403,0 393.5,9.5 384,19 384,32 v 192 q 0,13 9.5,22.5 9.5,9.5 22.5,9.5 h 1344 q 13,0 22.5,-9.5 9.5,-9.5 9.5,-22.5 z M 256,1376 v -192 q 0,-13 -9.5,-22.5 Q 237,1152 224,1152 H 32 q -13,0 -22.5,9.5 Q 0,1171 0,1184 v 192 q 0,13 9.5,22.5 9.5,9.5 22.5,9.5 h 192 q 13,0 22.5,-9.5 9.5,-9.5 9.5,-22.5 z M 1792,608 V 416 q 0,-13 -9.5,-22.5 Q 1773,384 1760,384 H 416 q -13,0 -22.5,9.5 Q 384,403 384,416 v 192 q 0,13 9.5,22.5 9.5,9.5 22.5,9.5 h 1344 q 13,0 22.5,-9.5 9.5,-9.5 9.5,-22.5 z m 0,384 V 800 q 0,-13 -9.5,-22.5 Q 1773,768 1760,768 H 416 q -13,0 -22.5,9.5 Q 384,787 384,800 v 192 q 0,13 9.5,22.5 9.5,9.5 22.5,9.5 h 1344 q 13,0 22.5,-9.5 9.5,-9.5 9.5,-22.5 z m 0,384 v -192 q 0,-13 -9.5,-22.5 -9.5,-9.5 -22.5,-9.5 H 416 q -13,0 -22.5,9.5 -9.5,9.5 -9.5,22.5 v 192 q 0,13 9.5,22.5 9.5,9.5 22.5,9.5 h 1344 q 13,0 22.5,-9.5 9.5,-9.5 9.5,-22.5 z"
         id="path4264" />
    </g>
    <g
       inkscape:export-ydpi="90"
       inkscape:export-xdpi="90"
       inkscape:export-filename="/home/audrey/Documents/access42/0-clients/SNCF-DAVH/2015-guide-mobilite/reader/img/settings-sm.png"
       style="fill:#666666;fill-opacity:1;stroke:none"
       transform="matrix(0.01078932,0,0,-0.01078932,277.03065,116.78962)"
       id="g4278">
      <path
         style="fill:#666666;fill-opacity:1;stroke:none"
         inkscape:connector-curvature="0"
         d="m 896,640 q 0,106 -75,181 -75,75 -181,75 -106,0 -181,-75 -75,-75 -75,-181 0,-106 75,-181 75,-75 181,-75 106,0 181,75 75,75 75,181 z m 768,-512 q 0,52 -38,90 -38,38 -90,38 -52,0 -90,-38 -38,-38 -38,-90 0,-53 37.5,-90.5 Q 1483,0 1536,0 1589,0 1626.5,37.5 1664,75 1664,128 z m 0,1024 q 0,52 -38,90 -38,38 -90,38 -52,0 -90,-38 -38,-38 -38,-90 0,-53 37.5,-90.5 37.5,-37.5 90.5,-37.5 53,0 90.5,37.5 37.5,37.5 37.5,90.5 z M 1280,731 V 546 q 0,-10 -7,-19.5 -7,-9.5 -16,-10.5 l -155,-24 q -11,-35 -32,-76 34,-48 90,-115 7,-10 7,-20 0,-12 -7,-19 -23,-30 -82.5,-89.5 Q 1018,113 999,113 q -11,0 -21,7 L 863,210 Q 826,191 786,179 775,71 763,24 756,0 733,0 H 547 Q 536,0 527,7.5 518,15 517,25 l -23,153 q -34,10 -75,31 L 301,120 q -7,-7 -20,-7 -11,0 -21,8 -144,133 -144,160 0,9 7,19 10,14 41,53 31,39 47,61 -23,44 -35,82 L 24,520 Q 14,521 7,529.5 0,538 0,549 v 185 q 0,10 7,19.5 7,9.5 16,10.5 l 155,24 q 11,35 32,76 -34,48 -90,115 -7,11 -7,20 0,12 7,20 22,30 82,89 60,59 79,59 11,0 21,-7 l 115,-90 q 34,18 77,32 11,108 23,154 7,24 30,24 h 186 q 11,0 20,-7.5 9,-7.5 10,-17.5 l 23,-153 q 34,-10 75,-31 l 118,89 q 8,7 20,7 11,0 21,-8 144,-133 144,-160 0,-9 -7,-19 -12,-16 -42,-54 -30,-38 -45,-60 23,-48 34,-82 l 152,-23 q 10,-2 17,-10.5 7,-8.5 7,-19.5 z M 1920,198 V 58 q 0,-16 -149,-31 -12,-27 -30,-52 51,-113 51,-138 0,-4 -4,-7 -122,-71 -124,-71 -8,0 -46,47 -38,47 -52,68 -20,-2 -30,-2 -10,0 -30,2 -14,-21 -52,-68 -38,-47 -46,-47 -2,0 -124,71 -4,3 -4,7 0,25 51,138 -18,25 -30,52 -149,15 -149,31 v 140 q 0,16 149,31 13,29 30,52 -51,113 -51,138 0,4 4,7 4,2 35,20 31,18 59,34 28,16 30,16 8,0 46,-46.5 38,-46.5 52,-67.5 20,2 30,2 10,0 30,-2 51,71 92,112 l 6,2 q 4,0 124,-70 4,-3 4,-7 0,-25 -51,-138 17,-23 30,-52 149,-15 149,-31 z m 0,1024 v -140 q 0,-16 -149,-31 -12,-27 -30,-52 51,-113 51,-138 0,-4 -4,-7 -122,-71 -124,-71 -8,0 -46,47 -38,47 -52,68 -20,-2 -30,-2 -10,0 -30,2 -14,-21 -52,-68 -38,-47 -46,-47 -2,0 -124,71 -4,3 -4,7 0,25 51,138 -18,25 -30,52 -149,15 -149,31 v 140 q 0,16 149,31 13,29 30,52 -51,113 -51,138 0,4 4,7 4,2 35,20 31,18 59,34 28,16 30,16 8,0 46,-46.5 38,-46.5 52,-67.5 20,2 30,2 10,0 30,-2 51,71 92,112 l 6,2 q 4,0 124,-70 4,-3 4,-7 0,-25 -51,-138 17,-23 30,-52 149,-15 149,-31 z"
         id="path4280" />
    </g>
    <g
       inkscape:export-ydpi="90"
       inkscape:export-xdpi="90"
       inkscape:export-filename="/home/audrey/Documents/access42/0-clients/SNCF-DAVH/2015-guide-mobilite/reader/img/help-info-sm.png"
       style="fill:#ececec;fill-opacity:1;stroke:none"
       transform="matrix(0.01236979,0,0,-0.01236979,133.37805,112.12269)"
       id="g4282">
      <path
         style="fill:#ececec;fill-opacity:1;stroke:none"
         inkscape:connector-curvature="0"
         d="m 896,160 v 192 q 0,14 -9,23 -9,9 -23,9 H 672 q -14,0 -23,-9 -9,-9 -9,-23 V 160 q 0,-14 9,-23 9,-9 23,-9 h 192 q 14,0 23,9 9,9 9,23 z m 256,672 q 0,88 -55.5,163 -55.5,75 -138.5,116 -83,41 -170,41 -243,0 -371,-213 -15,-24 8,-42 L 557,797 q 7,-6 19,-6 16,0 25,12 53,68 86,92 34,24 86,24 48,0 85.5,-26 Q 896,867 896,834 896,796 876,773 856,750 808,728 745,700 692.5,641.5 640,583 640,516 v -36 q 0,-14 9,-23 9,-9 23,-9 h 192 q 14,0 23,9 9,9 9,23 0,19 21.5,49.5 21.5,30.5 54.5,49.5 32,18 49,28.5 17,10.5 46,35 29,24.5 44.5,48 15.5,23.5 28,60.5 12.5,37 12.5,81 z M 1536,640 Q 1536,431 1433,254.5 1330,78 1153.5,-25 977,-128 768,-128 559,-128 382.5,-25 206,78 103,254.5 0,431 0,640 0,849 103,1025.5 206,1202 382.5,1305 559,1408 768,1408 977,1408 1153.5,1305 1330,1202 1433,1025.5 1536,849 1536,640 z"
         id="path4284" />
    </g>
    <g
       inkscape:export-ydpi="90"
       inkscape:export-xdpi="90"
       inkscape:export-filename="/home/audrey/Documents/access42/0-clients/SNCF-DAVH/2015-guide-mobilite/reader/img/owner-info-sm.png"
       style="fill:#cccccc;fill-opacity:1;stroke:none"
       transform="matrix(0.01236979,0,0,-0.01236979,170.30207,112.25576)"
       id="g4286">
      <path
         style="fill:#cccccc;fill-opacity:1;stroke:none"
         inkscape:connector-curvature="0"
         d="m 1024,160 v 160 q 0,14 -9,23 -9,9 -23,9 h -96 v 512 q 0,14 -9,23 -9,9 -23,9 H 544 q -14,0 -23,-9 -9,-9 -9,-23 V 704 q 0,-14 9,-23 9,-9 23,-9 h 96 V 352 h -96 q -14,0 -23,-9 -9,-9 -9,-23 V 160 q 0,-14 9,-23 9,-9 23,-9 h 448 q 14,0 23,9 9,9 9,23 z m -128,896 v 160 q 0,14 -9,23 -9,9 -23,9 H 672 q -14,0 -23,-9 -9,-9 -9,-23 v -160 q 0,-14 9,-23 9,-9 23,-9 h 192 q 14,0 23,9 9,9 9,23 z M 1536,640 Q 1536,431 1433,254.5 1330,78 1153.5,-25 977,-128 768,-128 559,-128 382.5,-25 206,78 103,254.5 0,431 0,640 0,849 103,1025.5 206,1202 382.5,1305 559,1408 768,1408 977,1408 1153.5,1305 1330,1202 1433,1025.5 1536,849 1536,640 z"
         id="path4288" />
    </g>
    <g
       inkscape:export-ydpi="90"
       inkscape:export-xdpi="90"
       inkscape:export-filename="/home/audrey/Documents/access42/0-clients/SNCF-DAVH/2015-guide-mobilite/reader/img/goto-sm.png"
       style="fill:#ffffff;fill-opacity:1;stroke:none"
       transform="matrix(0.011875,0,0,-0.011875,247.07367,110.34464)"
       id="g4290">
      <path
         style="fill:#ffffff;fill-opacity:1;stroke:none"
         inkscape:connector-curvature="0"
         d="m 1792,896 q 0,-26 -19,-45 L 1261,339 q -19,-19 -45,-19 -26,0 -45,19 -19,19 -19,45 V 640 H 928 Q 830,640 752.5,634 675,628 598.5,612.5 522,597 465.5,570 409,543 360,500.5 311,458 280,399.5 249,341 231.5,261 214,181 214,80 q 0,-55 5,-123 0,-6 2.5,-23.5 2.5,-17.5 2.5,-26.5 0,-15 -8.5,-25 -8.5,-10 -23.5,-10 -16,0 -28,17 -7,9 -13,22 -6,13 -13.5,30 Q 130,-42 127,-35 0,250 0,416 q 0,199 53,333 162,403 875,403 h 224 v 256 q 0,26 19,45 19,19 45,19 26,0 45,-19 l 512,-512 q 19,-19 19,-45 z"
         id="path4292" />
    </g>
    <g
       id="g4296"
       transform="matrix(0.01757813,0,0,-0.01757813,106.55935,180.23378)"
       style="fill:#0088ce;fill-opacity:1"
       inkscape:export-filename="/home/audrey/Documents/access42/0-clients/SNCF-DAVH/2015-guide-mobilite/reader/img/prev-setting.png"
       inkscape:export-xdpi="90"
       inkscape:export-ydpi="90">
      <path
         id="path4298"
         d="m 576,640 q 0,-26 -19,-45 L 109,147 Q 90,128 64,128 38,128 19,147 0,166 0,192 v 896 q 0,26 19,45 19,19 45,19 26,0 45,-19 L 557,685 q 19,-19 19,-45 z"
         inkscape:connector-curvature="0"
         style="fill:#0088ce;fill-opacity:1" />
    </g>
    <g
       id="g4331"
       transform="matrix(0.01236979,0,0,-0.01236979,35.670272,89.017175)"
       style="fill:#0088ce;fill-opacity:1"
       inkscape:export-filename="/home/audrey/Documents/access42/0-clients/SNCF-DAVH/2015-guide-mobilite/reader/img/plan.png"
       inkscape:export-xdpi="90"
       inkscape:export-ydpi="90">
      <path
         id="path4333"
         d="M 160,0 H 768 V 1152 H 128 V 32 Q 128,19 137.5,9.5 147,0 160,0 z M 1536,32 V 1152 H 896 V 0 h 608 q 13,0 22.5,9.5 9.5,9.5 9.5,22.5 z m 128,1216 V 32 q 0,-66 -47,-113 -47,-47 -113,-47 H 160 Q 94,-128 47,-81 0,-34 0,32 v 1216 q 0,66 47,113 47,47 113,47 h 1344 q 66,0 113,-47 47,-47 47,-113 z"
         inkscape:connector-curvature="0"
         style="fill:#0088ce;fill-opacity:1" />
    </g>
    <g
       inkscape:export-ydpi="90"
       inkscape:export-xdpi="90"
       inkscape:export-filename="/home/audrey/Documents/access42/0-clients/SNCF-DAVH/2015-guide-mobilite/reader/img/fullscreen-sm.png"
       style="fill:#cccccc;fill-opacity:1;stroke:none"
       transform="matrix(0.01236979,0,0,-0.01236979,220.8097,216.30147)"
       id="g3024">
      <path
         style="fill:#cccccc;fill-opacity:1;stroke:none"
         inkscape:connector-curvature="0"
         d="m 755,480 q 0,-13 -10,-23 L 413,125 557,-19 q 19,-19 19,-45 0,-26 -19,-45 -19,-19 -45,-19 H 64 q -26,0 -45,19 -19,19 -19,45 v 448 q 0,26 19,45 19,19 45,19 26,0 45,-19 L 253,285 585,617 q 10,10 23,10 13,0 23,-10 L 745,503 q 10,-10 10,-23 z m 781,864 V 896 q 0,-26 -19,-45 -19,-19 -45,-19 -26,0 -45,19 L 1283,995 951,663 q -10,-10 -23,-10 -13,0 -23,10 L 791,777 q -10,10 -10,23 0,13 10,23 l 332,332 -144,144 q -19,19 -19,45 0,26 19,45 19,19 45,19 h 448 q 26,0 45,-19 19,-19 19,-45 z"
         id="path3026" />
    </g>
    <path
       sodipodi:nodetypes="csssscc"
       inkscape:connector-curvature="0"
       id="path4210"
       d="m 300.25479,50.508399 -21.07561,0 c -0.74469,0 -1.3442,0.600217 -1.3442,1.34578 l 0,15.639867 c 0,0.745561 0.59951,1.345778 1.3442,1.345778 l 21.07561,0 z"
       style="opacity:1;fill:url(#linearGradient4230);fill-opacity:1;stroke:#ffffff;stroke-width:0.1;stroke-miterlimit:4;stroke-dasharray:none;stroke-opacity:1"
       inkscape:export-xdpi="90"
       inkscape:export-ydpi="90"
       inkscape:export-filename="/home/ubuntu/Documents/0-clients/SNCF-DAVH/2015-rapport-accessibilite/reader/css/img/onoff.png" />
    <text
       sodipodi:linespacing="125%"
       id="text4212"
       y="63.841698"
       x="285.30719"
       style="font-style:normal;font-weight:normal;font-size:11.4336462px;line-height:125%;font-family:sans-serif;letter-spacing:0px;word-spacing:0px;fill:#ffffff;fill-opacity:1;stroke:none;stroke-width:1px;stroke-linecap:butt;stroke-linejoin:miter;stroke-opacity:1"
       xml:space="preserve"
       inkscape:export-xdpi="90"
       inkscape:export-ydpi="90"
       inkscape:export-filename="/home/ubuntu/Documents/0-clients/SNCF-DAVH/2015-rapport-accessibilite/reader/css/img/onoff.png"><tspan
         y="63.841698"
         x="285.30719"
         id="tspan4214"
         sodipodi:role="line">1</tspan></text>
  </g>
</svg>
